REM DIRINDEX 1\4,1\2\5,1\2\6,1\3\7,1\3\8,1\3\9,1\3\10
REM DIRNAME folder01,folder02,folder03,folder04,folder05,folder06,folder07,folder08,folder09,folder10
TITLE ""
FILE "DISC2Track16.mp3" MP3
  TRACK 01 AUDIO
    TITLE "0:"
    INDEX 01 00:00:00
  TRACK 02 AUDIO
    TITLE "7:cjc107_1587"
    INDEX 01 00:00:01
  TRACK 03 AUDIO
    TITLE "0:"
    INDEX 01 00:02:34
  TRACK 04 AUDIO
    TITLE "8:cjc107_1588"
    INDEX 01 00:03:49
  TRACK 05 AUDIO
    TITLE "0:"
    INDEX 01 00:04:68
  TRACK 06 AUDIO
    TITLE "9:cjc107_1589"
    INDEX 01 00:05:07
  TRACK 07 AUDIO
    TITLE "0:"
    INDEX 01 00:07:29
  TRACK 08 AUDIO
    TITLE "8:cjc107_1590"
    INDEX 01 00:08:01
  TRACK 09 AUDIO
    TITLE "0:"
    INDEX 01 00:09:18
  TRACK 10 AUDIO
    TITLE "9:cjc107_1591"
    INDEX 01 00:09:22
  TRACK 11 AUDIO
    TITLE "0:"
    INDEX 01 00:10:53
  TRACK 12 AUDIO
    TITLE "8:cjc107_1592"
    INDEX 01 00:11:25
  TRACK 13 AUDIO
    TITLE "0:"
    INDEX 01 00:12:40
  TRACK 14 AUDIO
    TITLE "9:cjc107_1593"
    INDEX 01 00:12:42
  TRACK 15 AUDIO
    TITLE "0:"
    INDEX 01 00:14:37
  TRACK 16 AUDIO
    TITLE "8:cjc107_1594"
    INDEX 01 00:15:13
  TRACK 17 AUDIO
    TITLE "0:"
    INDEX 01 00:16:14
  TRACK 18 AUDIO
    TITLE "9:cjc107_1595"
    INDEX 01 00:16:26
  TRACK 19 AUDIO
    TITLE "0:"
    INDEX 01 00:19:20
  TRACK 20 AUDIO
    TITLE "8:cjc107_1596"
    INDEX 01 00:19:67
  TRACK 21 AUDIO
    TITLE "0:"
    INDEX 01 00:21:41
  TRACK 22 AUDIO
    TITLE "9:cjc107_1597"
    INDEX 01 00:21:49
  TRACK 23 AUDIO
    TITLE "0:"
    INDEX 01 00:24:69
  TRACK 24 AUDIO
    TITLE "8:cjc107_1598"
    INDEX 01 00:25:39
  TRACK 25 AUDIO
    TITLE "0:"
    INDEX 01 00:26:54
  TRACK 26 AUDIO
    TITLE "9:cjc107_1599"
    INDEX 01 00:26:66
  TRACK 27 AUDIO
    TITLE "0:"
    INDEX 01 00:28:64
  TRACK 28 AUDIO
    TITLE "8:cjc107_1600"
    INDEX 01 00:29:34
  TRACK 29 AUDIO
    TITLE "0:"
    INDEX 01 00:30:34
  TRACK 30 AUDIO
    TITLE "9:cjc107_1601"
    INDEX 01 00:30:40
  TRACK 31 AUDIO
    TITLE "0:"
    INDEX 01 00:32:00
  TRACK 32 AUDIO
    TITLE "8:cjc107_1602"
    INDEX 01 00:32:48
  TRACK 33 AUDIO
    TITLE "0:"
    INDEX 01 00:33:62
  TRACK 34 AUDIO
    TITLE "9:cjc107_1603"
    INDEX 01 00:33:64
  TRACK 35 AUDIO
    TITLE "0:"
    INDEX 01 00:35:35
  TRACK 36 AUDIO
    TITLE "8:cjc107_1604"
    INDEX 01 00:36:05
  TRACK 37 AUDIO
    TITLE "0:"
    INDEX 01 00:37:16
  TRACK 38 AUDIO
    TITLE "9:cjc107_1605"
    INDEX 01 00:37:18
  TRACK 39 AUDIO
    TITLE "0:"
    INDEX 01 00:40:17
  TRACK 40 AUDIO
    TITLE "8:cjc107_1606"
    INDEX 01 00:40:68
  TRACK 41 AUDIO
    TITLE "0:"
    INDEX 01 00:42:08
  TRACK 42 AUDIO
    TITLE "9:cjc107_1607"
    INDEX 01 00:42:19
  TRACK 43 AUDIO
    TITLE "0:"
    INDEX 01 00:43:23
  TRACK 44 AUDIO
    TITLE "8:cjc107_1608"
    INDEX 01 00:43:74
  TRACK 45 AUDIO
    TITLE "0:"
    INDEX 01 00:45:65
  TRACK 46 AUDIO
    TITLE "9:cjc107_1609"
    INDEX 01 00:45:73
  TRACK 47 AUDIO
    TITLE "0:"
    INDEX 01 00:47:36
  TRACK 48 AUDIO
    TITLE "8:cjc107_1610"
    INDEX 01 00:48:12
  TRACK 49 AUDIO
    TITLE "0:"
    INDEX 01 00:49:33
  TRACK 50 AUDIO
    TITLE "9:cjc107_1611"
    INDEX 01 00:49:39
  TRACK 51 AUDIO
    TITLE "0:"
    INDEX 01 00:51:40
  TRACK 52 AUDIO
    TITLE "10:cjc107_1612"
    INDEX 01 00:53:13
  TRACK 53 AUDIO
    TITLE "10:cjc107_1613"
    INDEX 01 00:55:55
  TRACK 54 AUDIO
    TITLE "10:cjc107_1614"
    INDEX 01 01:00:35
  TRACK 55 AUDIO
    TITLE "10:cjc107_1615"
    INDEX 01 01:07:57
  TRACK 56 AUDIO
    TITLE "10:cjc107_1616"
    INDEX 01 01:11:41
  TRACK 57 AUDIO
    TITLE "10:cjc107_1617"
    INDEX 01 01:16:30
  TRACK 58 AUDIO
    TITLE "10:cjc107_1618"
    INDEX 01 01:21:35
  TRACK 59 AUDIO
    TITLE "0:"
    INDEX 01 01:27:14
